{
	"asset":{
		"generator":"Khronos glTF Blender I/O v4.0.44",
		"version":"2.0"
	},
	"scene":0,
	"scenes":[
		{
			"name":"Scene",
			"nodes":[
				0,
				1,
				2,
				3,
				4,
				5,
				6,
				7,
				8,
				9
			]
		}
	],
	"nodes":[
		{
			"mesh":0,
			"name":"Body"
		},
		{
			"mesh":1,
			"name":"Batteries",
			"scale":[
				0.5882159471511841,
				0.7153652310371399,
				0.5882159471511841
			],
			"translation":[
				0.5526158809661865,
				0,
				-1.490746259689331
			]
		},
		{
			"mesh":2,
			"name":"Arms",
			"scale":[
				1,
				1.5948317050933838,
				1.5948317050933838
			],
			"translation":[
				0,
				0.2212858647108078,
				0
			]
		},
		{
			"mesh":3,
			"name":"Arms.001",
			"scale":[
				1,
				1.5948317050933838,
				1.5948317050933838
			],
			"translation":[
				0,
				0.2212858647108078,
				0
			]
		},
		{
			"mesh":4,
			"name":"Cube",
			"scale":[
				0.231983944773674,
				0.1619999259710312,
				0.231983944773674
			],
			"translation":[
				0.3600805997848511,
				-0.9031529426574707,
				0
			]
		},
		{
			"mesh":5,
			"name":"Body.001"
		},
		{
			"mesh":6,
			"name":"Batteries.001"
		},
		{
			"mesh":7,
			"name":"Arms.002"
		},
		{
			"mesh":8,
			"name":"Arms.003"
		},
		{
			"mesh":9,
			"name":"Cube.001"
		}
	],
	"meshes":[
		{
			"name":"Cube.001",
			"primitives":[
				{
					"attributes":{
						"POSITION":0,
						"NORMAL":1,
						"TEXCOORD_0":2,
						"TANGENT":3
					},
					"indices":4
				}
			]
		},
		{
			"name":"Cylinder",
			"primitives":[
				{
					"attributes":{
						"POSITION":5,
						"NORMAL":6,
						"TEXCOORD_0":7
					},
					"indices":8
				}
			]
		},
		{
			"name":"Cube.002",
			"primitives":[
				{
					"attributes":{
						"POSITION":9,
						"NORMAL":10,
						"TEXCOORD_0":11
					},
					"indices":12
				}
			]
		},
		{
			"name":"Cube.003",
			"primitives":[
				{
					"attributes":{
						"POSITION":13,
						"NORMAL":14,
						"TEXCOORD_0":15,
						"TANGENT":16
					},
					"indices":17
				}
			]
		},
		{
			"name":"Cube.005",
			"primitives":[
				{
					"attributes":{
						"POSITION":18,
						"NORMAL":19,
						"TEXCOORD_0":20,
						"TANGENT":21
					},
					"indices":22
				}
			]
		},
		{
			"name":"Cube.006",
			"primitives":[
				{
					"attributes":{
						"POSITION":23,
						"NORMAL":24,
						"TEXCOORD_0":25,
						"TANGENT":26
					},
					"indices":27
				}
			]
		},
		{
			"name":"Cylinder.001",
			"primitives":[
				{
					"attributes":{
						"POSITION":28,
						"NORMAL":29,
						"TEXCOORD_0":30
					},
					"indices":31
				}
			]
		},
		{
			"name":"Cube.007",
			"primitives":[
				{
					"attributes":{
						"POSITION":32,
						"NORMAL":33,
						"TEXCOORD_0":34
					},
					"indices":35
				}
			]
		},
		{
			"name":"Cube.008",
			"primitives":[
				{
					"attributes":{
						"POSITION":36,
						"NORMAL":37,
						"TEXCOORD_0":38,
						"TANGENT":39
					},
					"indices":40
				}
			]
		},
		{
			"name":"Cube.009",
			"primitives":[
				{
					"attributes":{
						"POSITION":41,
						"NORMAL":42,
						"TEXCOORD_0":43,
						"TANGENT":44
					},
					"indices":45
				}
			]
		}
	],
	"accessors":[
		{
			"bufferView":0,
			"componentType":5126,
			"count":136,
			"max":[
				1,
				1,
				1.2299046516418457
			],
			"min":[
				-1,
				-1,
				-1
			],
			"type":"VEC3"
		},
		{
			"bufferView":1,
			"componentType":5126,
			"count":136,
			"type":"VEC3"
		},
		{
			"bufferView":2,
			"componentType":5126,
			"count":136,
			"type":"VEC2"
		},
		{
			"bufferView":3,
			"componentType":5126,
			"count":136,
			"type":"VEC4"
		},
		{
			"bufferView":4,
			"componentType":5123,
			"count":204,
			"type":"SCALAR"
		},
		{
			"bufferView":5,
			"componentType":5126,
			"count":192,
			"max":[
				0.8875867128372192,
				1.1338863372802734,
				0.8875867128372192
			],
			"min":[
				-0.8875867128372192,
				-1,
				-0.8875867128372192
			],
			"type":"VEC3"
		},
		{
			"bufferView":6,
			"componentType":5126,
			"count":192,
			"type":"VEC3"
		},
		{
			"bufferView":7,
			"componentType":5126,
			"count":192,
			"type":"VEC2"
		},
		{
			"bufferView":8,
			"componentType":5123,
			"count":372,
			"type":"SCALAR"
		},
		{
			"bufferView":9,
			"componentType":5126,
			"count":288,
			"max":[
				2.8536434173583984,
				0.26498353481292725,
				0.26498347520828247
			],
			"min":[
				0.9963608980178833,
				-0.26498353481292725,
				-0.26498347520828247
			],
			"type":"VEC3"
		},
		{
			"bufferView":10,
			"componentType":5126,
			"count":288,
			"type":"VEC3"
		},
		{
			"bufferView":11,
			"componentType":5126,
			"count":288,
			"type":"VEC2"
		},
		{
			"bufferView":12,
			"componentType":5123,
			"count":468,
			"type":"SCALAR"
		},
		{
			"bufferView":13,
			"componentType":5126,
			"count":24,
			"max":[
				3.4086625576019287,
				0.09446148574352264,
				0.17327319085597992
			],
			"min":[
				2.8559792041778564,
				-0.0649639368057251,
				-0.17327319085597992
			],
			"type":"VEC3"
		},
		{
			"bufferView":14,
			"componentType":5126,
			"count":24,
			"type":"VEC3"
		},
		{
			"bufferView":15,
			"componentType":5126,
			"count":24,
			"type":"VEC2"
		},
		{
			"bufferView":16,
			"componentType":5126,
			"count":24,
			"type":"VEC4"
		},
		{
			"bufferView":17,
			"componentType":5123,
			"count":36,
			"type":"SCALAR"
		},
		{
			"bufferView":18,
			"componentType":5126,
			"count":112,
			"max":[
				1,
				0.3619112968444824,
				3.0390689373016357
			],
			"min":[
				-1,
				-6.270970344543457,
				-1
			],
			"type":"VEC3"
		},
		{
			"bufferView":19,
			"componentType":5126,
			"count":112,
			"type":"VEC3"
		},
		{
			"bufferView":20,
			"componentType":5126,
			"count":112,
			"type":"VEC2"
		},
		{
			"bufferView":21,
			"componentType":5126,
			"count":112,
			"type":"VEC4"
		},
		{
			"bufferView":22,
			"componentType":5123,
			"count":204,
			"type":"SCALAR"
		},
		{
			"bufferView":23,
			"componentType":5126,
			"count":1971,
			"max":[
				1.0000001192092896,
				2.913464069366455,
				1.2299047708511353
			],
			"min":[
				-1.0000001192092896,
				0.9134637713432312,
				-1.0000001192092896
			],
			"type":"VEC3"
		},
		{
			"bufferView":24,
			"componentType":5126,
			"count":1971,
			"type":"VEC3"
		},
		{
			"bufferView":25,
			"componentType":5126,
			"count":1971,
			"type":"VEC2"
		},
		{
			"bufferView":26,
			"componentType":5126,
			"count":1971,
			"type":"VEC4"
		},
		{
			"bufferView":27,
			"componentType":5123,
			"count":3456,
			"type":"SCALAR"
		},
		{
			"bufferView":28,
			"componentType":5126,
			"count":384,
			"max":[
				1.0747084617614746,
				2.724606513977051,
				-0.9686536192893982
			],
			"min":[
				-1.0747084617614746,
				1.1980984210968018,
				-2.012838840484619
			],
			"type":"VEC3"
		},
		{
			"bufferView":29,
			"componentType":5126,
			"count":384,
			"type":"VEC3"
		},
		{
			"bufferView":30,
			"componentType":5126,
			"count":384,
			"type":"VEC2"
		},
		{
			"bufferView":31,
			"componentType":5123,
			"count":744,
			"type":"SCALAR"
		},
		{
			"bufferView":32,
			"componentType":5126,
			"count":608,
			"max":[
				2.8475255966186523,
				2.5374088287353516,
				0.40265923738479614
			],
			"min":[
				-2.8475255966186523,
				1.7320904731750488,
				-0.40265923738479614
			],
			"type":"VEC3"
		},
		{
			"bufferView":33,
			"componentType":5126,
			"count":608,
			"type":"VEC3"
		},
		{
			"bufferView":34,
			"componentType":5126,
			"count":608,
			"type":"VEC2"
		},
		{
			"bufferView":35,
			"componentType":5123,
			"count":936,
			"type":"SCALAR"
		},
		{
			"bufferView":36,
			"componentType":5126,
			"count":48,
			"max":[
				3.4086625576019287,
				2.285399913787842,
				0.27634158730506897
			],
			"min":[
				-3.4086625576019287,
				2.0311431884765625,
				-0.27634158730506897
			],
			"type":"VEC3"
		},
		{
			"bufferView":37,
			"componentType":5126,
			"count":48,
			"type":"VEC3"
		},
		{
			"bufferView":38,
			"componentType":5126,
			"count":48,
			"type":"VEC2"
		},
		{
			"bufferView":39,
			"componentType":5126,
			"count":48,
			"type":"VEC4"
		},
		{
			"bufferView":40,
			"componentType":5123,
			"count":72,
			"type":"SCALAR"
		},
		{
			"bufferView":41,
			"componentType":5126,
			"count":240,
			"max":[
				0.5576613545417786,
				1.0429203510284424,
				0.6655957698822021
			],
			"min":[
				-0.5576613545417786,
				0.012984540313482285,
				-0.186113178730011
			],
			"type":"VEC3"
		},
		{
			"bufferView":42,
			"componentType":5126,
			"count":240,
			"type":"VEC3"
		},
		{
			"bufferView":43,
			"componentType":5126,
			"count":240,
			"type":"VEC2"
		},
		{
			"bufferView":44,
			"componentType":5126,
			"count":240,
			"type":"VEC4"
		},
		{
			"bufferView":45,
			"componentType":5123,
			"count":408,
			"type":"SCALAR"
		}
	],
	"bufferViews":[
		{
			"buffer":0,
			"byteLength":1632,
			"byteOffset":0,
			"target":34962
		},
		{
			"buffer":0,
			"byteLength":1632,
			"byteOffset":1632,
			"target":34962
		},
		{
			"buffer":0,
			"byteLength":1088,
			"byteOffset":3264,
			"target":34962
		},
		{
			"buffer":0,
			"byteLength":2176,
			"byteOffset":4352,
			"target":34962
		},
		{
			"buffer":0,
			"byteLength":408,
			"byteOffset":6528,
			"target":34963
		},
		{
			"buffer":0,
			"byteLength":2304,
			"byteOffset":6936,
			"target":34962
		},
		{
			"buffer":0,
			"byteLength":2304,
			"byteOffset":9240,
			"target":34962
		},
		{
			"buffer":0,
			"byteLength":1536,
			"byteOffset":11544,
			"target":34962
		},
		{
			"buffer":0,
			"byteLength":744,
			"byteOffset":13080,
			"target":34963
		},
		{
			"buffer":0,
			"byteLength":3456,
			"byteOffset":13824,
			"target":34962
		},
		{
			"buffer":0,
			"byteLength":3456,
			"byteOffset":17280,
			"target":34962
		},
		{
			"buffer":0,
			"byteLength":2304,
			"byteOffset":20736,
			"target":34962
		},
		{
			"buffer":0,
			"byteLength":936,
			"byteOffset":23040,
			"target":34963
		},
		{
			"buffer":0,
			"byteLength":288,
			"byteOffset":23976,
			"target":34962
		},
		{
			"buffer":0,
			"byteLength":288,
			"byteOffset":24264,
			"target":34962
		},
		{
			"buffer":0,
			"byteLength":192,
			"byteOffset":24552,
			"target":34962
		},
		{
			"buffer":0,
			"byteLength":384,
			"byteOffset":24744,
			"target":34962
		},
		{
			"buffer":0,
			"byteLength":72,
			"byteOffset":25128,
			"target":34963
		},
		{
			"buffer":0,
			"byteLength":1344,
			"byteOffset":25200,
			"target":34962
		},
		{
			"buffer":0,
			"byteLength":1344,
			"byteOffset":26544,
			"target":34962
		},
		{
			"buffer":0,
			"byteLength":896,
			"byteOffset":27888,
			"target":34962
		},
		{
			"buffer":0,
			"byteLength":1792,
			"byteOffset":28784,
			"target":34962
		},
		{
			"buffer":0,
			"byteLength":408,
			"byteOffset":30576,
			"target":34963
		},
		{
			"buffer":0,
			"byteLength":23652,
			"byteOffset":30984,
			"target":34962
		},
		{
			"buffer":0,
			"byteLength":23652,
			"byteOffset":54636,
			"target":34962
		},
		{
			"buffer":0,
			"byteLength":15768,
			"byteOffset":78288,
			"target":34962
		},
		{
			"buffer":0,
			"byteLength":31536,
			"byteOffset":94056,
			"target":34962
		},
		{
			"buffer":0,
			"byteLength":6912,
			"byteOffset":125592,
			"target":34963
		},
		{
			"buffer":0,
			"byteLength":4608,
			"byteOffset":132504,
			"target":34962
		},
		{
			"buffer":0,
			"byteLength":4608,
			"byteOffset":137112,
			"target":34962
		},
		{
			"buffer":0,
			"byteLength":3072,
			"byteOffset":141720,
			"target":34962
		},
		{
			"buffer":0,
			"byteLength":1488,
			"byteOffset":144792,
			"target":34963
		},
		{
			"buffer":0,
			"byteLength":7296,
			"byteOffset":146280,
			"target":34962
		},
		{
			"buffer":0,
			"byteLength":7296,
			"byteOffset":153576,
			"target":34962
		},
		{
			"buffer":0,
			"byteLength":4864,
			"byteOffset":160872,
			"target":34962
		},
		{
			"buffer":0,
			"byteLength":1872,
			"byteOffset":165736,
			"target":34963
		},
		{
			"buffer":0,
			"byteLength":576,
			"byteOffset":167608,
			"target":34962
		},
		{
			"buffer":0,
			"byteLength":576,
			"byteOffset":168184,
			"target":34962
		},
		{
			"buffer":0,
			"byteLength":384,
			"byteOffset":168760,
			"target":34962
		},
		{
			"buffer":0,
			"byteLength":768,
			"byteOffset":169144,
			"target":34962
		},
		{
			"buffer":0,
			"byteLength":144,
			"byteOffset":169912,
			"target":34963
		},
		{
			"buffer":0,
			"byteLength":2880,
			"byteOffset":170056,
			"target":34962
		},
		{
			"buffer":0,
			"byteLength":2880,
			"byteOffset":172936,
			"target":34962
		},
		{
			"buffer":0,
			"byteLength":1920,
			"byteOffset":175816,
			"target":34962
		},
		{
			"buffer":0,
			"byteLength":3840,
			"byteOffset":177736,
			"target":34962
		},
		{
			"buffer":0,
			"byteLength":816,
			"byteOffset":181576,
			"target":34963
		}
	],
	"buffers":[
		{
			"byteLength":182392,
			"uri":"player_character-529354fadfd1feb734c3347fc28d76d8.bin"
		}
	]
}
